# xmcd
#
# Track frame offsets:
#	150
#	10917
#	24605
#	34445
#	45487
#	57120
#	66687
#	79447
#	91595
#	102750
#	118565
#	130330
#	144547
#	154177
#	166335
#	181925
#	194440
#	204830
#	215315
#	228327
#	240417
#	250182
#	263065
#	275932
#	289110
#	301335
#	311575
#	322730
#
# Disc length: 4430 seconds
#
# Revision: 1
# Processed by: cddbd v1.5.2PL0 Copyright (c) Steve Scherf et al.
# Submitted via: EasyCDDAExtractor 8.2.3.1
#
DISCID=8a114c1c
DTITLE=The Osborne Brothers - 1968 - 1974 Disc 4
DYEAR=1900
DGENRE=Country
TTITLE0=Wabash Cannonball
TTITLE1=Try Me One More Time
TTITLE2=Back To The Country Roads
TTITLE3=The Condition Of Samuel Wilder's Will
TTITLE4=Tears
TTITLE5=You're Heavy On My Mind
TTITLE6=Checkin' Her Over
TTITLE7=Lizzie Lou
TTITLE8=Side Saddle
TTITLE9=High On A Hilltop
TTITLE10=Sledd Ridin
TTITLE11=Walk Softly On The Bridges
TTITLE12=The 7Th Of December
TTITLE13=Fastest Grass Alive
TTITLE14=Bluegrass Melodies
TTITLE15=We're Holding On (To What We Used To Be)
TTITLE16=Heartache Looking For A Home
TTITLE17=M.A. Special
TTITLE18=I'm Not That Good At Goodbye
TTITLE19=Grandpa John
TTITLE20=Little Trouble
TTITLE21=A Born Ramblin´ Man
TTITLE22=Here Today And Gone Tomorrow
TTITLE23=El Randa
TTITLE24=In Case You Ever Change Your Mind
TTITLE25=Don't Let The Smokey Mountain Smoke Get In Your Eyes
TTITLE26=Summertime Is Past And Gone
TTITLE27=Highway Headin´ South
EXTD=
EXTT0=
EXTT1=
EXTT2=
EXTT3=
EXTT4=
EXTT5=
EXTT6=
EXTT7=
EXTT8=
EXTT9=
EXTT10=
EXTT11=
EXTT12=
EXTT13=
EXTT14=
EXTT15=
EXTT16=
EXTT17=
EXTT18=
EXTT19=
EXTT20=
EXTT21=
EXTT22=
EXTT23=
EXTT24=
EXTT25=
EXTT26=
EXTT27=
PLAYORDER=
